<?xml version="1.0" encoding="UTF-8" standalone="no"?>
<svg xmlns="http://www.w3.org/2000/svg" viewBox="0 0 800 400">
  <!-- Sky -->
  <rect x="0" y="0" width="800" height="300" fill="#87CEEB"/>
  
  <!-- Sun -->
  <circle cx="700" cy="80" r="40" fill="#FFD700"/>
  
  <!-- Mountains -->
  <path d="M0,300 L200,100 L400,300" fill="#8B4513"/>
  <path d="M300,300 L500,150 L700,300" fill="#8B4513"/>
  <path d="M600,300 L800,200 L800,300" fill="#8B4513"/>
  
  <!-- Ground -->
  <rect x="0" y="300" width="800" height="100" fill="#DEB887"/>
  
  <!-- Cacti -->
  <g transform="translate(100,250) scale(0.5)">
    <path d="M40,20 L40,80 M20,40 L60,40" stroke="#2D5A27" stroke-width="10"/>
  </g>
  <g transform="translate(300,270) scale(0.3)">
    <path d="M40,20 L40,80 M20,40 L60,40" stroke="#2D5A27" stroke-width="10"/>
  </g>
  <g transform="translate(600,260) scale(0.4)">
    <path d="M40,20 L40,80 M20,40 L60,40" stroke="#2D5A27" stroke-width="10"/>
  </g>
  
  <!-- Clouds -->
  <g fill="white">
    <circle cx="100" cy="80" r="20"/>
    <circle cx="130" cy="80" r="25"/>
    <circle cx="160" cy="80" r="20"/>
    
    <circle cx="400" cy="60" r="25"/>
    <circle cx="430" cy="60" r="30"/>
    <circle cx="460" cy="60" r="25"/>
  </g>
</svg>
