<?xml version="1.0" encoding="UTF-8" standalone="no"?>
<svg xmlns="http://www.w3.org/2000/svg" viewBox="0 0 100 100">
  <!-- Corn husk -->
  <path d="M30,20 Q50,10 70,20 Q80,50 70,80 Q50,90 30,80 Q20,50 30,20" fill="#90EE90"/>
  
  <!-- Corn kernels -->
  <circle cx="40" cy="30" r="3" fill="#FFD700"/>
  <circle cx="50" cy="30" r="3" fill="#FFD700"/>
  <circle cx="60" cy="30" r="3" fill="#FFD700"/>
  
  <circle cx="35" cy="40" r="3" fill="#FFD700"/>
  <circle cx="45" cy="40" r="3" fill="#FFD700"/>
  <circle cx="55" cy="40" r="3" fill="#FFD700"/>
  <circle cx="65" cy="40" r="3" fill="#FFD700"/>
  
  <circle cx="40" cy="50" r="3" fill="#FFD700"/>
  <circle cx="50" cy="50" r="3" fill="#FFD700"/>
  <circle cx="60" cy="50" r="3" fill="#FFD700"/>
  
  <circle cx="35" cy="60" r="3" fill="#FFD700"/>
  <circle cx="45" cy="60" r="3" fill="#FFD700"/>
  <circle cx="55" cy="60" r="3" fill="#FFD700"/>
  <circle cx="65" cy="60" r="3" fill="#FFD700"/>
  
  <circle cx="40" cy="70" r="3" fill="#FFD700"/>
  <circle cx="50" cy="70" r="3" fill="#FFD700"/>
  <circle cx="60" cy="70" r="3" fill="#FFD700"/>
  
  <!-- Husk details -->
  <path d="M30,20 Q50,25 70,20" fill="none" stroke="#228B22" stroke-width="2"/>
  <path d="M30,80 Q50,85 70,80" fill="none" stroke="#228B22" stroke-width="2"/>
</svg>
