<?xml version="1.0" encoding="UTF-8" standalone="no"?>
<svg xmlns="http://www.w3.org/2000/svg" viewBox="0 0 100 100">
  <!-- Piñata body -->
  <path d="M20,40 Q50,30 80,40 Q90,60 80,80 Q50,90 20,80 Q10,60 20,40" 
        fill="#FF6B6B" stroke="#E74C3C" stroke-width="3"/>
  
  <!-- Stripes -->
  <path d="M25,45 Q50,35 75,45" fill="none" stroke="#F1C40F" stroke-width="4"/>
  <path d="M25,55 Q50,45 75,55" fill="none" stroke="#2ECC71" stroke-width="4"/>
  <path d="M25,65 Q50,55 75,65" fill="none" stroke="#3498DB" stroke-width="4"/>
  <path d="M25,75 Q50,65 75,75" fill="none" stroke="#9B59B6" stroke-width="4"/>
  
  <!-- Hanging string -->
  <path d="M50,10 L50,35" stroke="#BDC3C7" stroke-width="2"/>
  
  <!-- Tassels -->
  <path d="M30,80 L25,90" stroke="#F1C40F" stroke-width="2"/>
  <path d="M45,82 L40,92" stroke="#2ECC71" stroke-width="2"/>
  <path d="M60,82 L65,92" stroke="#3498DB" stroke-width="2"/>
  <path d="M75,80 L80,90" stroke="#9B59B6" stroke-width="2"/>
</svg>
