<?xml version="1.0" encoding="UTF-8" standalone="no"?>
<svg xmlns="http://www.w3.org/2000/svg" viewBox="0 0 100 100">
  <!-- Corn husk wrapper -->
  <path d="M20,30 Q50,20 80,30 Q90,50 80,70 Q50,80 20,70 Q10,50 20,30" 
        fill="#F1C40F" stroke="#D4AC0D" stroke-width="3"/>
  
  <!-- Tamale filling -->
  <path d="M30,35 Q50,28 70,35 Q75,50 70,65 Q50,72 30,65 Q25,50 30,35" 
        fill="#FDEBD0" stroke="#F39C12" stroke-width="2"/>
  
  <!-- Texture lines -->
  <path d="M35,40 Q50,35 65,40" fill="none" stroke="#E67E22" stroke-width="1"/>
  <path d="M35,50 Q50,45 65,50" fill="none" stroke="#E67E22" stroke-width="1"/>
  <path d="M35,60 Q50,55 65,60" fill="none" stroke="#E67E22" stroke-width="1"/>
  
  <!-- Husk ties -->
  <path d="M15,50 L25,50" stroke="#A0522D" stroke-width="2"/>
  <path d="M75,50 L85,50" stroke="#A0522D" stroke-width="2"/>
</svg>
